<?xml version="1.0" encoding="utf-8"?>
<!-- Generator: Adobe Illustrator 18.1.0, SVG Export Plug-In . SVG Version: 6.00 Build 0)  -->
<svg version="1.1" id="Layer_1" xmlns="http://www.w3.org/2000/svg" xmlns:xlink="http://www.w3.org/1999/xlink" x="0px" y="0px"
	 viewBox="0 0 542.1 148.9" enable-background="new 0 0 542.1 148.9" xml:space="preserve">
<g>
	<path d="M9.9,24.8c6.5,1.6,14.2,4.2,18.9,6.6l-3.1,6.3c-4.7-2.3-12.6-5.2-18.9-6.8L9.9,24.8z M13,59.2
		c22.5-7.3,38.8-19.5,48.5-40.9c1.4,1.3,4.7,3.7,6.2,4.6C58,43.8,40.6,57.5,19.5,64.7c0.1,0.6-0.2,1.5-1,1.9L13,59.2z M18.2,7
		c6.5,1.9,14,4.6,18.9,7.1l-3.4,6.1c-5.1-2.7-12.2-5.5-18.6-7.4L18.2,7z M51.4,4.6c3,2.6,6.8,7,8.9,10.3l-3.7,2.7
		c-1.9-2.9-5.9-7.8-8.6-10.3L51.4,4.6z M61.9,0.4c3,2.6,6.8,7,8.9,10.2l-3.7,2.7c-1.9-3-5.8-7.6-8.6-10.2L61.9,0.4z"/>
	<path d="M118.2,2.4c3.1,2.7,6.9,7,8.8,9.9l-1.6,1.2l3.4,1.7c-0.3,0.4-0.7,0.8-1.2,1c-6,27-19.2,42.8-42.8,51.5
		c-1.3-1.9-3.5-4.5-4.9-5.9c22.5-7.5,34.7-22.7,38.6-42.1H74.7V13h46.5l0.6-0.4c-2-2.7-4.8-5.8-6.8-7.7L118.2,2.4z M133.9,12.7
		c-1.7-2.9-5.7-7.5-8.5-10l3.4-2.7c3.1,2.7,6.8,7.1,8.7,10L133.9,12.7z"/>
	<path d="M145.1,44.3V9.1l9.2,0.5c-0.1,0.6-0.7,1.2-1.9,1.4v33.3H145.1z M186.6,6.1c-0.1,0.7-0.6,1.2-1.9,1.4v22.7
		c0,15.2-5.1,29.2-25.6,37.4c-1.2-1.4-3.7-4.1-5.4-5.3c19.4-7.3,23.5-19.4,23.5-32V5.6L186.6,6.1z"/>
	<path d="M195.6,38.3h19.8v6h-19.8V38.3z"/>
	<path d="M280.5,26h-20.6l0.4,32.5c0.1,8.9-5.6,8.9-19.3,8.9c-0.2-1.9-1-4.8-1.8-6.6c1.9,0,4,0.1,5.8,0.1c6.6,0,8.1,0,8.1-2.5
		l-0.3-27c-7.3,10-18.1,20-29,26.4c-1.2-1.7-3.2-4-5-5.4c11.2-6,22.6-16.1,29.9-26.4h-26.7v-6.8h30.7l-0.1-15l9.1,0.4
		c-0.1,0.7-0.7,1.2-1.9,1.4l0.1,13.2h20.7V26z"/>
	<path d="M290.1,9.5c7.3,2.2,16,6,21.2,9.6l-3.7,6.5c-5.2-3.6-13.8-7.4-20.9-9.9L290.1,9.5z M288.7,58.8
		c24.8-7.6,41.7-21.9,50.2-41.8c2.1,1.7,4.5,3,6.6,4.2c-8.9,19.7-26.4,35.1-50.5,43.3c-0.1,0.7-0.6,1.4-1.2,1.7L288.7,58.8z"/>
	<path d="M406,27.7c-0.3,0.4-0.6,0.7-1.2,0.9c-6.2,21.9-17.7,32.5-39.3,38.5c-0.9-1.7-2.9-4.2-4.3-5.8c18.8-4.6,30.9-14.6,34.9-29.2
		h-45.6v-6.7H399l0.9-0.6L406,27.7z M398.5,13.8h-41V7.1h41V13.8z"/>
	<path d="M471,9.9c-0.4,0.4-0.9,0.6-1.6,0.6c-0.2,0-0.4,0-0.7-0.1c-5.5,5.5-13,11.7-19.9,16.8c0.6,0.3,1.5,0.6,1.9,0.8
		c-0.1,0.6-0.8,1.1-1.7,1.2v38h-7.6V32c-7.1,4.9-16.8,10.4-25.6,14.8c-1-1.7-2.9-4.2-4.3-5.5c19.2-8.7,40.8-23.8,52.1-36.7L471,9.9z
		"/>
	<path d="M480.2,9.5c7.3,2.2,16,6,21.2,9.6l-3.7,6.5c-5.2-3.6-13.8-7.4-20.9-9.9L480.2,9.5z M478.8,58.8
		c24.8-7.6,41.7-21.9,50.2-41.8c2.1,1.7,4.5,3,6.6,4.2c-8.9,19.7-26.4,35.1-50.5,43.3c-0.1,0.7-0.6,1.4-1.2,1.7L478.8,58.8z"/>
</g>
<g>
	<path d="M71.5,121.7h19.3v1.5c0,3.5-0.4,6.6-1.2,9.3c-0.8,2.5-2.2,4.8-4.1,7c-4.3,4.9-9.9,7.3-16.6,7.3c-6.5,0-12.1-2.4-16.8-7.1
		c-4.7-4.7-7-10.4-7-17.1c0-6.8,2.4-12.5,7.1-17.3c4.7-4.7,10.5-7.1,17.3-7.1c3.7,0,7.1,0.7,10.2,2.2c3,1.5,6,3.9,8.9,7.2l-5,4.8
		c-3.8-5.1-8.5-7.7-14-7.7c-4.9,0-9.1,1.7-12.4,5.1c-3.4,3.4-5,7.5-5,12.6c0,5.2,1.9,9.5,5.6,12.9c3.5,3.1,7.3,4.7,11.4,4.7
		c3.5,0,6.6-1.2,9.4-3.5c2.8-2.4,4.3-5.2,4.6-8.5H71.5V121.7z"/>
	<path d="M106.7,117.6h20.2V99.3h7.1v46.7h-7.1v-21.8h-20.2v21.8h-7.1V99.3h7.1V117.6z"/>
	<path d="M152.2,99.3v46.7h-7.1V99.3H152.2z"/>
	<path d="M163.4,146.1V99.3h7c3.1,0,5.6,0.2,7.5,0.7c1.9,0.5,3.5,1.3,4.8,2.5c1.3,1.2,2.4,2.7,3.1,4.5c0.8,1.8,1.2,3.6,1.2,5.4
		c0,3.4-1.3,6.2-3.8,8.5c2.5,0.8,4.4,2.3,5.9,4.5c1.5,2.1,2.2,4.5,2.2,7.3c0,3.7-1.3,6.7-3.9,9.3c-1.6,1.6-3.3,2.6-5.2,3.2
		c-2.1,0.6-4.8,0.9-8,0.9H163.4z M170.5,119.4h2.2c2.6,0,4.5-0.6,5.8-1.7c1.2-1.2,1.8-2.9,1.8-5.1c0-2.2-0.6-3.9-1.9-5
		c-1.3-1.1-3.1-1.7-5.4-1.7h-2.5V119.4z M170.5,139.4h4.4c3.2,0,5.5-0.6,7-1.9c1.6-1.4,2.4-3.1,2.4-5.1c0-2-0.8-3.7-2.3-5.1
		c-1.5-1.4-4.1-2-7.9-2h-3.6V139.4z"/>
	<path d="M207.1,99.3v40.1h13.7v6.6h-20.8V99.3H207.1z"/>
	<path d="M234.6,99.3v46.7h-7.1V99.3H234.6z"/>
	<path d="M262.6,122.5c0-6.6,2.4-12.2,7.2-17c4.8-4.7,10.6-7.1,17.3-7.1c6.7,0,12.4,2.4,17.1,7.1c4.8,4.8,7.2,10.5,7.2,17.2
		c0,6.7-2.4,12.4-7.2,17.1c-4.8,4.7-10.6,7.1-17.5,7.1c-6,0-11.5-2.1-16.3-6.3C265.3,136,262.6,130,262.6,122.5z M269.7,122.5
		c0,5.2,1.7,9.4,5.2,12.7c3.5,3.3,7.4,5,12,5c4.9,0,9-1.7,12.4-5.1c3.4-3.4,5.1-7.6,5.1-12.5c0-5-1.7-9.2-5-12.5
		c-3.3-3.4-7.4-5.1-12.3-5.1c-4.9,0-9,1.7-12.3,5.1C271.4,113.5,269.7,117.6,269.7,122.5z"/>
	<path d="M320.4,146.1V96.1l34.1,35.7V99.3h7.1v49.6l-34.1-35.6v32.7H320.4z"/>
	<path d="M379.8,99.3v40.1h13.7v6.6h-20.8V99.3H379.8z"/>
	<path d="M407.3,99.3v46.7h-7.1V99.3H407.3z"/>
	<path d="M418.5,146.1V96.1l34.1,35.7V99.3h7.1v49.6l-34.1-35.6v32.7H418.5z"/>
	<path d="M496.6,105.9h-18.7v11.2h18.2v6.6h-18.2v15.6h18.7v6.6h-25.8V99.3h25.8V105.9z"/>
</g>
<rect y="81.7" width="542.1" height="2.4"/>
</svg>
